<?xml version="1.0" standalone="no"?>
<!DOCTYPE svg PUBLIC "-//W3C//DTD SVG 20010904//EN"
 "http://www.w3.org/TR/2001/REC-SVG-20010904/DTD/svg10.dtd">
<svg version="1.0" xmlns="http://www.w3.org/2000/svg"
 width="512.000000pt" height="512.000000pt" viewBox="0 0 512.000000 512.000000"
 preserveAspectRatio="xMidYMid meet">

<g transform="translate(0.000000,512.000000) scale(0.100000,-0.100000)"
fill="#000000" stroke="none">
<path d="M4205 5036 c-266 -53 -459 -233 -525 -492 -89 -346 135 -717 482
-799 82 -19 238 -19 313 0 245 62 440 264 489 507 50 245 -33 480 -229 646
-135 115 -354 172 -530 138z m240 -161 c141 -37 266 -142 331 -279 92 -192 47
-427 -110 -574 -274 -256 -705 -149 -827 205 -128 372 223 747 606 648z"/>
<path d="M4502 4588 c-26 -24 -94 -86 -152 -138 -58 -53 -113 -102 -123 -109
-16 -12 -24 -7 -81 48 -38 36 -73 61 -86 61 -28 0 -80 -52 -80 -81 0 -26 183
-217 216 -225 12 -3 33 0 46 7 41 22 406 359 411 380 7 26 -8 68 -31 85 -33
25 -70 16 -120 -28z"/>
<path d="M2385 4720 c-117 -10 -257 -33 -370 -61 -79 -20 -202 -57 -218 -67
-5 -2 16 -30 47 -61 l56 -57 129 33 c186 46 325 63 524 63 268 0 439 -27 690
-111 161 -54 195 -58 220 -31 23 25 22 85 -1 106 -29 25 -214 91 -352 125
-229 55 -511 79 -725 61z"/>
<path d="M2428 4122 c-59 -26 -109 -50 -112 -53 -3 -3 19 -29 48 -58 l54 -54
66 27 c37 14 71 26 77 26 7 0 301 -124 655 -277 l644 -276 0 -471 0 -472 75
-74 75 -74 0 585 c0 453 -3 589 -12 602 -17 21 -1409 617 -1440 616 -13 0 -71
-21 -130 -47z"/>
<path d="M4442 3547 c-12 -13 -22 -32 -22 -44 0 -11 24 -72 54 -135 139 -295
205 -588 206 -910 0 -212 -31 -437 -84 -613 l-16 -50 59 -59 59 -59 32 99 c71
222 101 423 101 680 0 268 -33 474 -115 718 -49 148 -135 338 -168 373 -29 31
-78 30 -106 0z"/>
</g>
</svg>
