<?xml version="1.0" standalone="no"?>
<!DOCTYPE svg PUBLIC "-//W3C//DTD SVG 20010904//EN"
 "http://www.w3.org/TR/2001/REC-SVG-20010904/DTD/svg10.dtd">
<svg version="1.0" xmlns="http://www.w3.org/2000/svg"
 width="512.000000pt" height="512.000000pt" viewBox="0 0 512.000000 512.000000"
 preserveAspectRatio="xMidYMid meet">

<g transform="translate(0.000000,512.000000) scale(0.100000,-0.100000)"
fill="#000000" stroke="none">
<path d="M1780 4475 c-421 -306 -772 -563 -782 -571 -25 -24 -28 -52 -6 -79
17 -22 27 -25 84 -25 l64 0 0 -99 c0 -114 9 -147 45 -161 l25 -10 0 -399 0
-400 -27 -13 -28 -13 -3 -123 -3 -122 -62 0 c-105 0 -107 -3 -107 -180 0 -142
1 -150 22 -164 19 -13 58 -16 224 -16 l202 0 92 52 91 53 -261 3 -261 2 3 68
3 67 390 5 390 5 79 47 79 47 -2 80 -2 81 142 0 c140 0 142 0 195 31 29 16 56
34 59 39 7 11 -22 40 -41 40 -12 0 -14 61 -14 404 l0 405 28 13 27 13 3 123 3
122 129 0 129 0 3 -122 3 -123 28 -13 27 -13 0 -330 c0 -181 3 -329 6 -329 3
0 28 12 55 27 l49 28 2 305 3 305 83 3 82 3 0 -257 c0 -284 -6 -267 69 -219
l41 25 0 220 0 219 28 13 27 13 3 123 3 122 129 0 130 0 0 -111 c0 -117 9
-149 40 -149 19 0 20 -7 20 -116 l0 -116 53 31 52 30 3 85 3 86 84 0 84 0 3
-34 3 -33 82 46 83 46 0 118 0 117 63 0 c75 0 107 18 107 60 0 26 -23 45 -237
203 -852 623 -1321 961 -1338 964 -14 3 -253 -165 -785 -552z m1453 -64 c367
-266 667 -488 667 -493 0 -7 -473 -8 -1337 -3 -736 4 -1339 8 -1340 9 -4 3
1332 974 1338 972 3 0 305 -219 672 -485z m-1683 -686 l0 -75 -145 0 -145 0 0
75 0 75 145 0 145 0 0 -75z m372 -47 l3 -123 28 -13 27 -13 0 -405 c0 -382 -1
-404 -18 -404 -36 0 -42 -20 -42 -142 l0 -118 -130 0 -130 0 0 111 c0 117 -9
149 -40 149 -20 0 -20 9 -20 404 l0 405 28 13 27 13 3 123 3 122 129 0 129 0
3 -122z m398 47 l0 -75 -145 0 -145 0 0 75 0 75 145 0 145 0 0 -75z m770 0 l0
-75 -145 0 -145 0 0 75 0 75 145 0 145 0 0 -75z m770 0 l0 -75 -145 0 -145 0
0 75 0 75 145 0 145 0 0 -75z m-1602 -597 l2 -408 -85 0 -85 0 0 403 c0 222 3
407 7 411 4 4 41 5 83 4 l75 -3 3 -407z m-768 -3 l0 -405 -85 0 -85 0 0 405 0
405 85 0 85 0 0 -405z m60 -590 l0 -75 -145 0 -145 0 0 75 0 75 145 0 145 0 0
-75z"/>
<path d="M2481 4566 c-47 -17 -108 -71 -131 -116 -29 -58 -34 -110 -16 -171
31 -107 115 -171 226 -171 110 0 195 64 226 170 53 181 -128 352 -305 288z
m126 -111 c38 -11 73 -62 73 -106 0 -76 -49 -129 -120 -129 -71 0 -120 53
-120 129 0 48 37 97 83 110 32 9 41 8 84 -4z"/>
<path d="M269 2686 c-94 -33 -162 -128 -163 -225 0 -41 34 -179 123 -511 68
-250 125 -457 128 -460 7 -8 93 42 93 54 0 6 -52 206 -115 444 -63 238 -115
449 -115 469 0 47 32 97 74 117 42 20 67 20 109 2 64 -27 72 -45 157 -359 44
-164 87 -314 95 -334 20 -48 57 -96 99 -128 l34 -26 80 47 c65 38 81 53 86 76
3 17 22 46 41 65 35 35 37 36 97 30 55 -5 67 -2 111 23 l49 28 -63 31 c-147
73 -289 14 -337 -142 l-18 -58 -26 20 c-39 31 -52 67 -139 392 -45 167 -87
316 -95 330 -20 40 -98 104 -142 117 -51 15 -117 15 -163 -2z"/>
</g>
</svg>
