<?xml version="1.0" standalone="no"?>
<!DOCTYPE svg PUBLIC "-//W3C//DTD SVG 20010904//EN"
 "http://www.w3.org/TR/2001/REC-SVG-20010904/DTD/svg10.dtd">
<svg version="1.0" xmlns="http://www.w3.org/2000/svg"
 width="512.000000pt" height="512.000000pt" viewBox="0 0 512.000000 512.000000"
 preserveAspectRatio="xMidYMid meet">

<g transform="translate(0.000000,512.000000) scale(0.100000,-0.100000)"
fill="#000000" stroke="none">
<path d="M136 3319 c-62 -208 -88 -392 -88 -629 0 -310 47 -556 159 -835 344
-858 1211 -1418 2138 -1382 199 8 466 56 599 107 l29 11 -49 50 c-36 37 -54
48 -69 44 -11 -3 -33 -8 -50 -12 l-30 -6 29 32 30 31 -44 45 -44 45 -31 -29
c-84 -81 -245 -165 -340 -178 l-45 -6 0 314 0 315 -65 64 -65 64 0 -377 c0
-436 14 -395 -118 -351 -180 60 -342 200 -487 419 -50 76 -150 264 -143 270 2
1 47 19 101 39 114 43 304 90 435 108 l92 13 -59 59 -58 58 -89 -17 c-126 -23
-263 -60 -377 -102 -54 -19 -100 -33 -103 -30 -10 10 -84 239 -109 336 -33
130 -71 342 -85 477 l-12 112 -70 68 -70 69 7 -90 c25 -340 86 -653 179 -922
20 -56 36 -106 36 -111 0 -5 -23 -19 -52 -33 -41 -19 -198 -119 -335 -214 -11
-8 -37 13 -113 93 -226 235 -385 496 -484 795 -62 185 -106 415 -106 549 l0
48 377 0 377 0 -64 65 -64 65 -315 0 -314 0 6 98 c8 110 26 221 58 353 l22 90
-50 51 -51 51 -26 -84z m1248 -2165 c91 -171 185 -302 298 -415 38 -38 64 -69
59 -69 -6 0 -64 18 -130 39 -196 65 -422 181 -579 299 l-53 40 66 48 c84 59
256 164 272 164 6 0 36 -47 67 -106z"/>
</g>
</svg>
